# xmcd
#
# Track frame offsets: 
#        150
#        12250
#        45138
#        78911
#        111553
#        138923
#        166414
#        186626
#        220798
#
# Disc length: 3322 seconds
#
# Revision: 3
# Processed by: cddbd v1.5.2PL0 Copyright (c) Steve Scherf et al.
# Submitted via: ExactAudioCopyFreeDBPlugin 1.0
#
DISCID=740cf809
DTITLE=Various Artist - The Best of Disco Demands
DYEAR=2012
DGENRE=Rhythm and Blues
TTITLE0=The Don Renaldo Strings - Fiddlin' Around
TTITLE1=Jimmy Sabater - To Be with You
TTITLE2=Crosstown Traffic - Party People
TTITLE3=Alex and His Soul Messengers - Hail to Guyana
TTITLE4=Harold Butler and The Connection - Gold Connection
TTITLE5=Ike Noble - Dance, Dance, Dance to the Music (Y'all)
TTITLE6=The Legal Defense - The Disco Stomp
TTITLE7=Panaché - Sweet Jazz Music
TTITLE8=Allan Harris and Perpetual Motion - Get Ready
EXTD=
EXTT0=
EXTT1=
EXTT2=
EXTT3=
EXTT4=
EXTT5=
EXTT6=
EXTT7=
EXTT8=
PLAYORDER=
